<?xml version="1.0" encoding="utf-8"?>
<!-- Generator: Adobe Illustrator 15.1.0, SVG Export Plug-In . SVG Version: 6.00 Build 0)  -->
<!DOCTYPE svg PUBLIC "-//W3C//DTD SVG 1.1//EN" "http://www.w3.org/Graphics/SVG/1.1/DTD/svg11.dtd">
<svg version="1.1" id="Layer_1" xmlns="http://www.w3.org/2000/svg" xmlns:xlink="http://www.w3.org/1999/xlink" x="0px" y="0px"
	 width="500px" height="500px" viewBox="0 0 500 500" enable-background="new 0 0 500 500" xml:space="preserve">
<line fill="none" stroke="#000000" stroke-miterlimit="10" x1="93.066" y1="281.894" x2="262.212" y2="256.306"/>
<line fill="none" stroke="#000000" stroke-miterlimit="10" x1="262.212" y1="256.306" x2="374.538" y2="256.306"/>
<line fill="none" stroke="#000000" stroke-miterlimit="10" x1="93.066" y1="290.063" x2="262.212" y2="264.475"/>
<line fill="none" stroke="#000000" stroke-miterlimit="10" x1="262.212" y1="264.475" x2="374.538" y2="264.475"/>
<line fill="none" stroke="#000000" stroke-miterlimit="10" x1="93.066" y1="290.063" x2="93.066" y2="281.894"/>
<line fill="none" stroke="#000000" stroke-miterlimit="10" x1="374.538" y1="264.475" x2="374.538" y2="256.306"/>
<line fill="none" stroke="#000000" stroke-miterlimit="10" x1="262.212" y1="256.306" x2="262.212" y2="264.475"/>
<line fill="none" stroke="#000000" stroke-miterlimit="10" x1="103.803" y1="288.439" x2="103.803" y2="393.933"/>
<line fill="none" stroke="#000000" stroke-miterlimit="10" x1="103.803" y1="393.933" x2="262.619" y2="433.107"/>
<line fill="none" stroke="#000000" stroke-miterlimit="10" x1="262.212" y1="264.475" x2="262.212" y2="433.107"/>
<line fill="none" stroke="#000000" stroke-miterlimit="10" x1="255.271" y1="425.597" x2="255.271" y2="425.597"/>
<line fill="none" stroke="#000000" stroke-miterlimit="10" x1="368.056" y1="264.475" x2="368.056" y2="415.621"/>
<line fill="none" stroke="#000000" stroke-miterlimit="10" x1="262.212" y1="433.107" x2="319.898" y2="423.576"/>
<line fill="none" stroke="#000000" stroke-miterlimit="10" x1="262.619" y1="281.894" x2="155.936" y2="291.992"/>
<line fill="none" stroke="#000000" stroke-miterlimit="10" x1="155.936" y1="291.992" x2="155.936" y2="333.636"/>
<line fill="none" stroke="#000000" stroke-miterlimit="10" x1="155.936" y1="333.636" x2="260.043" y2="341.185"/>
<line fill="none" stroke="#000000" stroke-miterlimit="10" x1="260.043" y1="341.185" x2="262.619" y2="341.185"/>
<line fill="none" stroke="#000000" stroke-miterlimit="10" x1="262.619" y1="281.894" x2="319.472" y2="284.618"/>
<line fill="none" stroke="#000000" stroke-miterlimit="10" x1="319.472" y1="284.618" x2="319.472" y2="332.118"/>
<line fill="none" stroke="#000000" stroke-miterlimit="10" x1="319.472" y1="331.033" x2="262.619" y2="341.185"/>
<line fill="none" stroke="#000000" stroke-miterlimit="10" x1="212.671" y1="263.397" x2="225.02" y2="109.37"/>
<line fill="none" stroke="#000000" stroke-miterlimit="10" x1="257.018" y1="237.665" x2="251.047" y2="109.37"/>
<line fill="none" stroke="#000000" stroke-miterlimit="10" x1="276.201" y1="256.306" x2="275.876" y2="234.299"/>
<line fill="none" stroke="#000000" stroke-miterlimit="10" x1="275.876" y1="234.299" x2="241.716" y2="239.505"/>
<line fill="none" stroke="#000000" stroke-miterlimit="10" x1="241.716" y1="239.505" x2="241.716" y2="259.406"/>
<line fill="none" stroke="#000000" stroke-miterlimit="10" x1="275.876" y1="234.299" x2="307.759" y2="234.299"/>
<line fill="none" stroke="#000000" stroke-miterlimit="10" x1="307.759" y1="234.299" x2="307.759" y2="256.306"/>
<line fill="none" stroke="#000000" stroke-miterlimit="10" x1="217.465" y1="102.863" x2="255.525" y2="102.863"/>
<line fill="none" stroke="#000000" stroke-miterlimit="10" x1="215.972" y1="109.37" x2="257.018" y2="109.37"/>
<line fill="none" stroke="#000000" stroke-miterlimit="10" x1="217.465" y1="102.863" x2="215.972" y2="109.37"/>
<line fill="none" stroke="#000000" stroke-miterlimit="10" x1="255.525" y1="102.863" x2="257.018" y2="109.37"/>
<line fill="none" stroke="#000000" stroke-miterlimit="10" x1="165.587" y1="291.992" x2="164.286" y2="333.636"/>
<line fill="none" stroke="#000000" stroke-miterlimit="10" x1="178.926" y1="290.063" x2="180.209" y2="335.397"/>
<line fill="none" stroke="#000000" stroke-miterlimit="10" x1="190.042" y1="336.108" x2="194.867" y2="290.063"/>
<line fill="none" stroke="#000000" stroke-miterlimit="10" x1="207.989" y1="287.064" x2="209.277" y2="336.108"/>
<line fill="none" stroke="#000000" stroke-miterlimit="10" x1="231.63" y1="287.064" x2="226.75" y2="336.108"/>
<line fill="none" stroke="#000000" stroke-miterlimit="10" x1="246.921" y1="285.979" x2="247.247" y2="337.41"/>
<line fill="none" stroke="#000000" stroke-miterlimit="10" x1="275.876" y1="283.256" x2="276.201" y2="337.41"/>
<line fill="none" stroke="#000000" stroke-miterlimit="10" x1="288.564" y1="284.618" x2="291.817" y2="333.636"/>
<line fill="none" stroke="#000000" stroke-miterlimit="10" x1="302.229" y1="284.618" x2="300.276" y2="332.118"/>
<line fill="none" stroke="#000000" stroke-miterlimit="10" x1="311.988" y1="285.979" x2="311.338" y2="331.033"/>
<line fill="none" stroke="#000000" stroke-miterlimit="10" x1="147.196" y1="273.705" x2="149.32" y2="221.937"/>
<line fill="none" stroke="#000000" stroke-miterlimit="10" x1="149.32" y1="221.937" x2="155.936" y2="221.937"/>
<line fill="none" stroke="#000000" stroke-miterlimit="10" x1="155.936" y1="221.937" x2="160.015" y2="271.766"/>
<line fill="none" stroke="#000000" stroke-miterlimit="10" x1="149.32" y1="229.419" x2="155.936" y2="229.745"/>
<line fill="none" stroke="#000000" stroke-miterlimit="10" x1="141.262" y1="403.172" x2="141.621" y2="383.303"/>
<line fill="none" stroke="#000000" stroke-miterlimit="10" x1="141.621" y1="383.303" x2="199.964" y2="393.238"/>
<line fill="none" stroke="#000000" stroke-miterlimit="10" x1="199.964" y1="393.238" x2="198.874" y2="417.382"/>
<line fill="none" stroke="#000000" stroke-miterlimit="10" x1="157.975" y1="386.089" x2="157.975" y2="407.294"/>
<line fill="none" stroke="#000000" stroke-miterlimit="10" x1="180.209" y1="390.679" x2="180.209" y2="412.779"/>
<line fill="none" stroke="#000000" stroke-miterlimit="10" x1="139.808" y1="402.813" x2="90.109" y2="417.382"/>
<line fill="none" stroke="#000000" stroke-miterlimit="10" x1="198.874" y1="417.382" x2="145.091" y2="445.442"/>
<line fill="none" stroke="#000000" stroke-miterlimit="10" x1="124.519" y1="407.294" x2="176.056" y2="429.287"/>
<line fill="none" stroke="#000000" stroke-miterlimit="10" x1="96.117" y1="415.621" x2="157.975" y2="438.72"/>
<line fill="none" stroke="#000000" stroke-miterlimit="10" x1="279.78" y1="429.287" x2="279.347" y2="403.258"/>
<line fill="none" stroke="#000000" stroke-miterlimit="10" x1="279.347" y1="403.258" x2="293.227" y2="401.728"/>
<line fill="none" stroke="#000000" stroke-miterlimit="10" x1="293.227" y1="401.728" x2="294.212" y2="427.82"/>
<line fill="none" stroke="#000000" stroke-miterlimit="10" x1="281.732" y1="398.269" x2="284.985" y2="389.81"/>
<line fill="none" stroke="#000000" stroke-miterlimit="10" x1="284.985" y1="389.81" x2="288.564" y2="398.269"/>
<line fill="none" stroke="#000000" stroke-miterlimit="10" x1="283.358" y1="395.015" x2="287.293" y2="395.267"/>
<line fill="none" stroke="#000000" stroke-miterlimit="10" x1="291.817" y1="418.439" x2="291.045" y2="418.874"/>
<line fill="none" stroke="#000000" stroke-miterlimit="10" x1="319.472" y1="438.178" x2="319.472" y2="393.933"/>
<line fill="none" stroke="#000000" stroke-miterlimit="10" x1="339.425" y1="438.396" x2="339.425" y2="394.151"/>
<g>
	<g>
		<path d="M320.948,394.54c-1.077-10.795,17.86-9.261,16.92,0.302c-0.03,0.308,1.872,0.094,1.932-0.518
			c1.071-10.892-21.975-11.201-20.783,0.733C319.058,395.473,321.004,395.095,320.948,394.54L320.948,394.54z"/>
	</g>
</g>
<line fill="none" stroke="#000000" stroke-miterlimit="10" x1="352.887" y1="418.084" x2="369.245" y2="415.621"/>
<g>
	<g>
		<path d="M333.452,386.442c0-4.121,0-8.242,0-12.363c0-0.843-1.936-0.439-1.936,0.229c0,4.121,0,8.242,0,12.363
			C331.517,387.514,333.452,387.11,333.452,386.442L333.452,386.442z"/>
	</g>
</g>
<g>
	<g>
		<path d="M334.108,374.098c0.706-7.163,15.868-5.411,16.28,1.331c0.047,0.762,1.983,0.327,1.932-0.518
			c-0.51-8.342-19.302-9.307-20.157-0.622C332.074,375.19,334.032,374.865,334.108,374.098L334.108,374.098z"/>
	</g>
</g>
<g>
	<g>
		<path d="M350.059,375.273c0.085,21.71,2.824,43.346,1.951,65.067c0.577-0.201,1.153-0.402,1.73-0.604
			c-0.478-0.246-0.869-0.652-1.301-0.977c-0.567-0.426-2.328,0.394-1.52,1c0.972,0.729-0.441,0.082,1.301,0.977
			c0.434,0.224,1.704,0.06,1.73-0.604c0.873-21.724-1.866-43.356-1.951-65.067C351.996,374.176,350.056,374.558,350.059,375.273
			L350.059,375.273z"/>
	</g>
</g>
<g>
	<g>
		<path d="M318.352,438.008c4.297,1.6,18.245,8.337,20.942,1.083c0.131-0.354-1.723-0.153-1.906,0.34
			c-1.851,4.979-14.004-0.889-17.448-2.171C319.51,437.1,317.776,437.794,318.352,438.008L318.352,438.008z"/>
	</g>
</g>
<g>
	<g>
		<path d="M350.411,439.554c-3.217,1.864-6.76,1.254-10.011-0.151c-0.657-0.284-2.398,0.636-1.516,1.018
			c4.26,1.841,8.645,2.235,12.763-0.151C352.779,439.613,351.117,439.145,350.411,439.554L350.411,439.554z"/>
	</g>
</g>
<g>
	<g>
		<path d="M338.256,394.435c0.493,10.526-0.238,21.026,0.244,31.558c0.047,1.028,1.999,0.734,1.959-0.141
			c-0.482-10.533,0.249-21.033-0.244-31.558C340.167,393.266,338.215,393.56,338.256,394.435L338.256,394.435z"/>
	</g>
</g>
<g>
	<g>
		<path d="M338.122,426.262c-0.648,2.365-0.783,4.629-0.584,7.076c0.157,1.936-0.362,4.131,0.487,5.938
			c0.187,0.396,1.803-0.074,1.917-0.436c0.552-1.75,0.254-3.562,0.461-5.368c0.329-2.878,0.087-5.735-0.039-8.622
			c-0.018-0.412-1.75,0.172-1.917,0.436c-1.572,2.485-0.883,6.063-0.94,8.867c-0.042,2.073,0.286,5.775,2.969,5.974
			c0.388,0.028,2.207-0.684,1.262-0.754c-2.507-0.185-2.311-5.129-2.279-6.681c0.052-2.516-0.514-5.538,0.892-7.76
			c-0.64,0.146-1.278,0.29-1.917,0.436c0.094,2.169,0.22,4.335,0.244,6.507c0.012,1.055-0.207,2.128-0.326,3.172
			c-0.167,1.455,0.15,2.687-0.311,4.147c0.64-0.146,1.278-0.29,1.917-0.436c-0.682-1.448-0.447-3.148-0.421-4.705
			c0.048-2.859-0.295-5.293,0.488-8.145C340.122,425.55,338.25,425.797,338.122,426.262L338.122,426.262z"/>
	</g>
</g>
<g>
	<g>
		<path d="M339.885,440.046c1.021,1.023,2.512,0.979,3.854,1.064c0.426,0.027,1.023-0.16,1.275-0.527
			c0.267-0.389-0.226-0.55-0.523-0.568c-0.977-0.063-2.069,0.021-2.813-0.725C341.198,438.809,339.369,439.53,339.885,440.046
			L339.885,440.046z"/>
	</g>
</g>
<g>
	<g>
		<path d="M344.236,441.387c2.582,0.202,4.874-0.465,7.266-1.368c1.26-0.476,0.115-1.205-0.783-0.865
			c-1.916,0.724-3.679,1.235-5.748,1.073C344.19,440.166,342.929,441.284,344.236,441.387L344.236,441.387z"/>
	</g>
</g>
<g>
	<g>
		<path d="M337.701,393.758c-0.493,2.078-0.337,3.733,0.02,5.827c0.668,3.919,0.486,7.815,0.428,11.781
			c-0.079,5.363-1.166,11.364,0.04,16.604c0.15,0.652,2.087,0.156,1.932-0.518c-1.26-5.475-0.096-12.682-0.014-18.261
			c0.036-2.419,0.146-4.84,0.029-7.256c-0.143-2.943-1.22-5.418-0.505-8.429C339.797,392.81,337.854,393.115,337.701,393.758
			L337.701,393.758z"/>
	</g>
</g>
<g>
	<g>
		<path d="M337.294,426.019c0.02,0.965,0.192,1.848,0.487,2.765c0.139,0.432,1.877-0.087,1.932-0.518
			c0.105-0.835-0.065-1.612-0.162-2.439c-0.125-1.074,0.033-1.909,0.392-2.926c0.117-0.331-1.733-0.13-1.902,0.35
			c-0.278,0.789-0.514,1.544-0.515,2.386c-0.002,1.07,0.393,2.063,0.256,3.147c0.644-0.173,1.288-0.345,1.932-0.518
			c-0.295-0.917-0.468-1.8-0.487-2.765C339.22,425.203,337.283,425.491,337.294,426.019L337.294,426.019z"/>
	</g>
</g>
<g>
	<g>
		<path d="M318.825,393.812c-0.525,6.506,0.426,13.144,0.081,19.683c-0.424,8.013-0.181,15.979-0.325,23.994
			c-0.017,0.912,1.93,0.554,1.943-0.195c0.134-7.38-0.268-14.749,0.171-22.126c0.426-7.153-0.501-14.431,0.073-21.551
			C320.842,392.719,318.886,393.055,318.825,393.812L318.825,393.812z"/>
	</g>
</g>
<g>
	<g>
		<path d="M333.384,375.59c0.237-0.953-0.037-1.953,0.285-2.885c0.397-1.146,1.869-1.61,2.828-2.149
			c1.144-0.643,0.107-1.731-0.867-1.184c-1.174,0.66-2.432,1.179-3.307,2.243c-1.036,1.259-0.542,2.672-0.9,4.109
			C331.184,376.687,333.165,376.466,333.384,375.59L333.384,375.59z"/>
	</g>
</g>
<g>
	<g>
		<path d="M350.292,374.34c0.127,2.2-0.139,4.389-0.162,6.589c-0.012,1.047,1.951,0.783,1.961-0.131
			c0.023-2.199,0.29-4.388,0.162-6.589C352.192,373.161,350.239,373.437,350.292,374.34L350.292,374.34z"/>
	</g>
</g>
<g>
	<g>
		<path d="M226.551,99.824c-5.486-1.658-11.195-2.188-16.81-3.238c-5.764-1.078-11.31-3.354-9.055-10.168
			c2.204-6.662,7.573-10.719,13.2-14.312c3.135-2.001,14.903-9.414,14.827-1.518c0.523-0.247,1.046-0.493,1.569-0.74
			c-21.097-5.259,5.343-46.682,21.92-27.136c0.33,0.39,2.012-0.027,1.867-0.621c-4.747-19.506,24.73-39.093,35.157-17.701
			c0.237,0.486,1.222,0.173,1.551-0.025c8.016-4.826,15.802-12.483,25.882-11.275c8.219,0.985,15.313,8.669,13.563,17.036
			c0.643-0.132,1.285-0.265,1.928-0.396c-3.653-11.616,9.174-14.981,18.168-15.042c9.523-0.064,22.749,2.957,27.399,12.306
			c0.261,0.525,1.418,0.15,1.729-0.144c7.244-6.843,13.267-15.757,22.797-19.611c13.068-5.284,27.936,8.589,26.882,21.585
			c-0.061,0.751,1.455,0.159,1.725-0.022c5.849-3.935,26.354-20.306,31.456-9.617c0.289,0.606,2.167-0.025,1.932-0.518
			c-5.885-12.331-28.675,5.707-34.913,9.904c0.574-0.007,1.149-0.015,1.725-0.022c1.06-13.075-11.326-23.842-23.952-23.244
			c-12.613,0.598-20.913,13.509-29.176,21.314c0.576-0.048,1.152-0.096,1.729-0.144c-5.31-10.674-20.623-13.224-31.307-12.702
			c-9.22,0.451-21.739,4.978-18.124,16.473c0.186,0.589,1.822,0.104,1.928-0.396c2.021-9.669-6.536-16.795-15.461-17.864
			c-10.286-1.232-18.983,7.038-27.078,11.913c0.517-0.008,1.034-0.017,1.551-0.025c-10.981-22.531-44.149-2.338-39.021,18.736
			c0.623-0.207,1.244-0.414,1.867-0.621c-17.774-20.958-48.365,22.979-24.929,28.822c0.446,0.111,1.563-0.158,1.569-0.74
			c0.115-11.837-23.972,5.369-26.968,8.43c-3.761,3.842-9.02,13.205-2.27,16.785c7.088,3.76,16,3.116,23.591,5.412
			C225.533,100.859,227.276,100.043,226.551,99.824L226.551,99.824z"/>
	</g>
</g>
<g>
	<g>
		<path d="M249.919,100.172c12.12,2.152,21.713,11.641,34.551,10.391c11.141-1.084,19.323-10.724,20.355-21.471
			c0.063-0.667-1.019-0.501-1.365-0.342c-9.765,4.49,1.578,9.674,7.024,10.757c11.267,2.242,20.423-8.422,26.16-16.768
			c-0.604-0.032-1.208-0.063-1.813-0.095c-7.276,12.161,7.569,17.734,16.989,19.93c11.37,2.651,19.08-1.632,25.815-10.726
			c-0.624,0.071-1.248,0.141-1.872,0.211c2.956,13.416,13.108,19.863,26.254,21.333c5.297,0.593,11.255,0.302,15.966-2.468
			c5.163-3.037,8.769-7.891,12.357-12.57c-0.624,0.071-1.248,0.141-1.872,0.211c6.78,16.949,23.987,12.905,36.713,5.279
			c1.123-0.673-0.548-1.071-1.223-0.666c-5.299,3.175-10.984,5.759-17.196,6.356c-8.067,0.776-13.544-4.442-16.362-11.487
			c-0.292-0.729-1.546-0.214-1.872,0.211c-3.021,3.938-6.036,7.982-10.076,10.942c-5.247,3.845-12.325,3.629-18.443,2.633
			c-11.641-1.896-19.752-8.668-22.313-20.293c-0.171-0.775-1.602-0.154-1.872,0.211c-2.854,3.854-5.948,7.501-10.411,9.502
			c-4.296,1.926-9.439,0.89-13.809-0.128c-8.665-2.02-21.497-7.462-14.96-18.389c0.513-0.855-1.444-0.631-1.813-0.095
			c-4.588,6.673-12.413,16.539-21.38,15.977c-3.678-0.23-17.959-4.947-9.201-8.974c-0.455-0.114-0.91-0.228-1.365-0.342
			c-1.213,12.635-11.777,21.924-24.721,19.897c-9.61-1.504-17.444-8.445-27.084-10.156
			C250.406,98.927,248.794,99.973,249.919,100.172L249.919,100.172z"/>
	</g>
</g>
<g>
	<g>
		<path d="M156.546,218.37c5.246,2.461,14.111,4.24,16.177-3.102c-0.621,0.166-1.242,0.333-1.863,0.499
			c4.834,3.541,8.578,3.166,11.502-2.09c1.625-2.92,3.276-4.467,6.925-4.776c1.471-0.125,2.984-0.115,4.429-0.46
			c3.528-0.842,5.313-2.667,6.335-6.187c-0.621,0.166-1.242,0.333-1.863,0.499c7.546,3.597,13.979,0.794,20.005-4.299
			c0.448-0.378-1.39-0.197-1.758,0.114c-4.609,3.896-10.537,6.32-16.432,3.51c-0.405-0.193-1.709-0.028-1.863,0.499
			c-2.218,7.642-9.315,3.667-14.105,6.945c-1.206,0.825-2.004,1.827-2.779,3.057c-0.573,0.908-1.052,1.88-1.596,2.807
			c-1.761,3-4.941,1.203-6.985-0.294c-0.362-0.265-1.73,0.028-1.863,0.499c-1.696,6.026-8.229,4.085-12.452,2.104
			C157.833,217.448,156.277,218.244,156.546,218.37L156.546,218.37z"/>
	</g>
</g>
<g>
	<g>
		<path d="M254.792,187.768c4.22,2.065,8.384,0.992,11.542-2.363c-0.594,0.137-1.188,0.274-1.781,0.412
			c4.888,4.366,8.831,3.025,14.186,0.419c6.48-3.153,12.4,2.244,18.178-3.434c-0.595,0.137-1.188,0.274-1.782,0.412
			c5.883,5.606,12.676,0.199,18.805-2.091c1.295-0.484,0.056-0.619-0.646-0.356c-5.169,1.932-11.435,6.48-16.332,1.813
			c-0.311-0.296-1.532,0.166-1.782,0.412c-4.077,4.007-8.62,0.656-13.255,1.542c-5.596,1.071-10.071,5.536-15.544,0.649
			c-0.316-0.283-1.537,0.151-1.782,0.412c-2.294,2.438-5.028,2.983-7.979,1.54C256.127,186.893,254.643,187.695,254.792,187.768
			L254.792,187.768z"/>
	</g>
</g>
<g>
	<g>
		<path d="M151.913,218.424c-0.967-1.232-1.569-2.238-1.76-3.801c-0.389-3.188,4.697-5.822,7.04-4.074
			c0.39,0.291,1.623-0.124,1.863-0.499c2.185-3.41,5.145-5.889,8.46-8.148c0.922-0.628,5.098-1.974,5.218-2.998
			c0.545-4.638,8.8-7.45,12.316-9.102c3.99-1.874,7.999-3.583,11.771-5.876c6.393-3.886,13.667-5.967,19.929-10.124
			c0.792-0.526-1.144-0.25-1.473-0.031c-6.742,4.474-14.566,6.863-21.472,11.062c-4.548,2.765-9.706,4.483-14.408,6.969
			c-2.425,1.282-8.141,3.752-8.529,7.06c-0.115,0.979-5.548,3.463-6.258,3.99c-2.911,2.158-5.496,4.486-7.458,7.547
			c0.621-0.167,1.242-0.333,1.863-0.499c-2.07-1.544-4.977-0.608-7.107,0.342c-3.943,1.76-4.477,5.451-1.927,8.699
			C150.338,219.397,152.038,218.584,151.913,218.424L151.913,218.424z"/>
	</g>
</g>
<g>
	<g>
		<path d="M256.67,168.457c0.967-4.504,5.066-6.166,8.549-2.754c0.43,0.421,1.695,0.073,1.862-0.499
			c1.003-3.447,2.849-2.732,5.563-3.325c1.6-0.349,3.025-0.993,4.458-1.774c7.083-3.863,14.128-7.194,22.471-6.602
			c0.723,0.051,2.062-0.983,0.756-1.076c-7.601-0.54-15.723,1.84-22.216,5.77c-2.297,1.39-4.244,2.707-7.098,2.791
			c-1.016,0.03-1.92,0.111-2.895,0.405c-1.851,0.559-2.482,2.385-2.97,4.06c0.62-0.167,1.241-0.333,1.862-0.499
			c-4.475-4.386-10.959-2.377-12.273,3.752C254.586,169.42,256.531,169.104,256.67,168.457L256.67,168.457z"/>
	</g>
</g>
<rect x="282.167" y="242.107" stroke="#000000" stroke-width="3" stroke-miterlimit="10" width="5.855" height="6.832"/>
<rect x="295.939" y="242.107" stroke="#000000" stroke-miterlimit="10" width="6.724" height="7.917"/>
<g>
	<g>
		<g>
			<path d="M365.818,388.911c0.055,12.514,1.02,25.005,0.868,37.522c-0.013,1.05,1.951,0.789,1.963-0.129
				c0.15-12.517-0.813-25.008-0.868-37.522C367.776,387.73,365.814,387.994,365.818,388.911L365.818,388.911z"/>
		</g>
	</g>
	<g>
		<g>
			<g>
				<path d="M368.088,388.623c7.146-5.097,14.569-9.691,22.929-12.505c8.34-2.808,16.968-1.88,25.579-2.63
					c9.254-0.807,17.875,3.447,26.267,6.699c7.519,2.913,14.632,5.915,18.188,13.688c0.383,0.837,2.293,0.272,1.932-0.518
					c-3.18-6.952-9.096-10.597-15.986-13.328c-8.37-3.317-17.482-7.943-26.681-8.01c-9.765-0.07-20.235-0.035-29.645,2.804
					c-8.694,2.624-16.529,7.717-23.855,12.943C365.745,388.53,367.329,389.165,368.088,388.623L368.088,388.623z"/>
			</g>
		</g>
		<g>
			<g>
				<path d="M366.446,427.414c17.57,4.371,35.662,5.85,53.713,6.467c8.451,0.289,16.941,0.471,25.397,0.475
					c4.332,0.002,8.663-0.096,12.914-0.992c3.209-0.678,6.204-2.254,9.312-3.268c1.308-0.426,0.075-0.763-0.688-0.514
					c-4.477,1.459-8.502,3.261-13.285,3.713c-4.86,0.46-9.787,0.179-14.658,0.069c-7.725-0.174-15.442-0.209-23.164-0.533
					c-16.122-0.677-32.279-2.303-47.965-6.204C367.548,426.509,365.838,427.263,366.446,427.414L366.446,427.414z"/>
			</g>
		</g>
		<g>
			<g>
				<path d="M460.833,393.876c0.087,12.104,1.659,24.126,1.952,36.222c0.015,0.593,1.949,0.217,1.932-0.518
					c-0.293-12.096-1.865-24.117-1.952-36.222C462.761,392.773,460.827,393.139,460.833,393.876L460.833,393.876z"/>
			</g>
		</g>
		<g>
			<g>
				<path d="M413.742,372.438c1.434-3.243,1.725-6.589,1.74-10.093c-0.644,0.173-1.288,0.345-1.932,0.518c0,2.819,0,5.64,0,8.459
					c0,0.482,1.932,0.152,1.932-0.518c0-2.819,0-5.64,0-8.459c0-0.483-1.929-0.15-1.932,0.518c-0.016,3.44-0.327,6.687-1.729,9.858
					C411.605,373.21,413.492,373.004,413.742,372.438L413.742,372.438z"/>
			</g>
		</g>
		<g>
			<g>
				<path d="M413.363,363.971c-2.203-0.193-4.325,0.374-5.608,2.276c-0.077,0.113-0.115,0.329,0.012,0.432
					c2.882,2.332,7.784,3.595,11.284,2.103c4.063-1.733-2.697-4.143-3.989-4.715c-0.616-0.273-2.373,0.604-1.525,0.979
					c0.971,0.43,1.958,0.819,2.925,1.26c1.094,0.5,3.138,1.617,0.631,1.923c-1.676,0.205-3.569-0.396-5.114-0.989
					c-0.568-0.218-1.109-0.496-1.64-0.794c-1.535-0.86,1.604-1.364,2.295-1.304C413.422,365.21,414.671,364.085,413.363,363.971
					L413.363,363.971z"/>
			</g>
		</g>
		<g>
			<g>
				<path d="M412.895,370.942c0,0.506,0,1.013,0,1.52c0,0.912,1.943,0.546,1.943-0.197c0-0.506,0-1.013,0-1.52
					C414.838,369.833,412.895,370.199,412.895,370.942L412.895,370.942z"/>
			</g>
		</g>
		<g>
			<g>
				<path d="M413.551,371.321c0.247,0.857,0.883,1.41,1.709,1.701c0.436,0.153,0.975,0.024,1.363-0.198
					c0.216-0.124,0.628-0.533,0.188-0.688c-0.666-0.234-1.128-0.641-1.328-1.332C415.305,370.186,413.376,370.716,413.551,371.321
					L413.551,371.321z"/>
			</g>
		</g>
	</g>
</g>
<g>
	<g>
		<path d="M82.181,364.896c6.437,3.118,12.6,2.214,19.043-0.399c1.252-0.508,0.104-1.127-0.759-0.777
			c-5.751,2.333-11.006,3.031-16.744,0.251C83.163,363.7,81.387,364.512,82.181,364.896L82.181,364.896z"/>
	</g>
</g>
<g>
	<g>
		<path d="M82.721,360.967c0.275,0.568,0.531,1.265,0.549,1.901c0.032,1.063,1.991,0.804,1.964-0.123
			c-0.028-0.942-0.344-1.813-0.751-2.653c-0.213-0.44-0.983-0.344-1.32-0.176C82.735,360.128,82.506,360.524,82.721,360.967
			L82.721,360.967z"/>
	</g>
</g>
<g>
	<g>
		<path d="M84.276,360.922c5.316,0.332,10.451,0.454,15.672-0.747c-0.349-0.012-0.697-0.024-1.045-0.037
			c0.27,1.151,0.295,1.96,0.013,3.165c-0.099,0.422,1.793,0.136,1.905-0.342c0.272-1.165,0.29-2.159,0.013-3.341
			c-0.069-0.297-0.89-0.073-1.045-0.037c-4.73,1.088-9.458,0.854-14.259,0.554C85.122,360.111,83.315,360.861,84.276,360.922
			L84.276,360.922z"/>
	</g>
</g>
<g>
	<g>
		<path d="M88.476,360.424c0.361-1.497,1.364-3.02,2.926-3.441c1.956-0.526,2.327,2.433,2.291,3.652
			c-0.026,0.875,1.919,0.502,1.94-0.211c0.076-2.581-0.938-4.869-3.84-4.646c-2.579,0.197-4.677,2.454-5.258,4.857
			C86.344,361.43,88.302,361.144,88.476,360.424L88.476,360.424z"/>
	</g>
</g>
<g>
	<g>
		<path d="M81.646,365.149c-0.362,6.177-0.815,12.29,0.34,18.412c0.176,0.934,2.111,0.434,1.932-0.518
			c-1.132-6.003-0.665-11.977-0.311-18.025C83.667,363.98,81.699,364.237,81.646,365.149L81.646,365.149z"/>
	</g>
</g>
<g>
	<g>
		<path d="M97.927,365.018c-0.224,5.144,0.896,10.185,1.301,15.291c0.034,0.427,1.978,0.061,1.932-0.518
			c-0.405-5.106-1.524-10.147-1.301-15.291C99.875,364.138,97.954,364.403,97.927,365.018L97.927,365.018z"/>
	</g>
</g>
<g>
	<g>
		<path d="M103.586,385.188c-4.701-1.636-4.617-8.621-10.748-8.24c-3.844,0.238-5.439,3.425-5.647,6.938
			c0.585-0.217,1.17-0.434,1.755-0.651c-6.196-1.586-16.734-2.85-12.166,6.833c0.585-0.217,1.17-0.434,1.755-0.651
			c-6.121-2.028-6.387,3.016-6.31,7.809c0.006,0.381,1.941,0.071,1.932-0.518c-0.032-1.997-1.139-7.813,2.8-6.506
			c0.258,0.085,1.975-0.186,1.755-0.651c-1.25-2.649-3.047-6.795,1.984-6.737c2.25,0.026,4.505,0.651,6.672,1.207
			c0.417,0.106,1.721-0.075,1.755-0.651c0.118-1.994,0.395-3.31,1.637-4.883c2.311-2.927,6.026,1.692,6.832,3.137
			c1.195,2.141,2.027,3.518,4.417,4.349C102.468,386.132,104.208,385.404,103.586,385.188L103.586,385.188z"/>
	</g>
</g>
<g>
	<g>
		<path d="M96.619,388.932c0,0.976,0,1.952,0,2.928c0,0.916,1.944,0.551,1.944-0.195c0-0.976,0-1.952,0-2.928
			C98.563,387.82,96.619,388.186,96.619,388.932L96.619,388.932z"/>
	</g>
</g>
<g>
	<g>
		<path d="M90.119,390.394c0.293,1.271,0.296,2.506,0.003,3.778c-0.152,0.66,1.784,0.348,1.926-0.266
			c0.311-1.347,0.314-2.683,0.003-4.03C91.909,389.261,89.972,389.756,90.119,390.394L90.119,390.394z"/>
	</g>
</g>
<g>
	<g>
		<path d="M82.961,393.647c0,0.434,0,0.867,0,1.301c0,0.596,1.932,0.23,1.932-0.518c0-0.434,0-0.867,0-1.301
			C84.893,392.534,82.961,392.899,82.961,393.647L82.961,393.647z"/>
	</g>
</g>
<g>
	<g>
		<path d="M90.189,372.193c3.022,0.632,5.821-0.256,8.463-1.726c1.154-0.642,0.099-1.519-0.82-1.008
			c-2.016,1.121-4.156,2.019-6.502,1.528C90.584,370.832,89.039,371.953,90.189,372.193L90.189,372.193z"/>
	</g>
</g>
<g>
	<g>
		<path d="M91.931,375.919c2.149,0.775,4.568,0.318,6.418-0.977c0.325-0.228,0.221-0.514-0.15-0.562
			c-0.467-0.06-0.985,0.1-1.366,0.366c-1.024,0.718-2.19,0.74-3.341,0.324c-0.421-0.152-0.984,0.008-1.359,0.212
			C91.919,375.398,91.503,375.765,91.931,375.919L91.931,375.919z"/>
	</g>
</g>
<g>
	<g>
		<path d="M98.575,376.257c0.001,2.271,0.007,4.553,0.979,6.654c0.329,0.711,2.224,0.113,1.932-0.518
			c-0.931-2.015-0.972-4.177-0.973-6.359C100.512,375.178,98.574,375.574,98.575,376.257L98.575,376.257z"/>
	</g>
</g>
<g>
	<g>
		<path d="M79.53,372.127c-4.39,0.788-8.538-0.33-12.714-1.604c-0.504-0.154-2.245,0.627-1.564,0.834
			c4.596,1.402,9.154,2.512,13.963,1.648C80.049,372.855,80.875,371.886,79.53,372.127L79.53,372.127z"/>
	</g>
</g>
<g>
	<g>
		<path d="M64.092,372.175c3.379,7.241,1.743,15.111,1.302,22.773c-0.016,0.281,1.899,0.054,1.932-0.518
			c0.441-7.662,2.077-15.532-1.302-22.773C65.802,371.184,63.938,371.847,64.092,372.175L64.092,372.175z"/>
	</g>
</g>
<g>
	<g>
		<path d="M71.633,378.113c1.828,1.423,3.857,2.319,6.145,2.688c0.458,0.073,2.241-0.689,1.236-0.852
			c-2.073-0.333-3.919-1.234-5.567-2.518C73.001,377.084,71.283,377.841,71.633,378.113L71.633,378.113z"/>
	</g>
</g>
<g>
	<g>
		<path d="M70.223,385.191c1.478,0.021,2.895,0.329,4.337,0.62c0.463,0.094,1.019-0.034,1.366-0.365
			c0.292-0.28,0.216-0.664-0.2-0.748c-1.583-0.32-3.151-0.658-4.772-0.681c-0.443-0.007-1.019,0.139-1.271,0.543
			C69.44,384.95,69.887,385.188,70.223,385.191L70.223,385.191z"/>
	</g>
</g>
<g>
	<g>
		<path d="M64.707,379.976c-8.309-0.281-4.844-15.303-14.331-14.563c-6.746,0.526-3.435,8.025-2.875,12.293
			c0.586-0.212,1.172-0.425,1.758-0.637c-4.919-1.267-8.759-7.406-14.222-3.561c-5.897,4.152-3.029,10.6,3.527,11.799
			c0.378,0.069,2.218-0.545,1.585-0.756c-4.482-1.496-12.126,0.884-7.786,6.806c0.335,0.457,1.216,2.219,1.873,2.401
			c2.737,0.761-0.21,2.805-1.294,3.399c-2.821,1.548-2.794,4.328-1.708,6.899c0.202,0.479,2.085-0.154,1.932-0.518
			c-0.972-2.303-1.278-5.734,2.005-6.509c0.628-0.147,2.168-0.434,2.458-1.167c0.581-1.465,0.645-2.392-1.069-2.656
			c-0.891-0.139-2.301-2.417-2.885-3.213c-2.371-3.235,1.824-5.71,4.889-4.688c0.528-0.252,1.057-0.504,1.585-0.756
			c-4.105-0.752-7.972-4.096-6.106-8.556c2.986-7.139,9.973,0.888,13.631,1.829c0.323,0.083,1.827-0.115,1.758-0.637
			c-0.307-2.344-1.034-4.605-1.329-6.956c-0.734-5.851,5.278-3.414,7.07,0.039c2.137,4.118,2.501,10.309,8.283,10.503
			C63.872,380.789,65.669,380.008,64.707,379.976L64.707,379.976z"/>
	</g>
</g>
<g>
	<g>
		<path d="M61.489,388.116c-0.023,3.148-0.3,6.287-0.325,9.435c-0.004,0.51,1.926,0.175,1.932-0.518
			c0.025-3.147,0.302-6.286,0.325-9.435C63.425,387.089,61.494,387.424,61.489,388.116L61.489,388.116z"/>
	</g>
</g>
<g>
	<g>
		<path d="M49.777,390.394c0.931,2.865,1.579,5.762,1.626,8.784c0.007,0.431,1.941,0.106,1.932-0.518
			c-0.047-3.022-0.695-5.919-1.626-8.784C51.535,389.34,49.616,389.896,49.777,390.394L49.777,390.394z"/>
	</g>
</g>
<g>
	<g>
		<path d="M44.247,395.925c0.694,1.479,0.932,3.142,0.653,4.752c-0.121,0.698,1.819,0.356,1.927-0.262
			c0.293-1.69,0.083-3.452-0.648-5.008C45.881,394.774,43.998,395.396,44.247,395.925L44.247,395.925z"/>
	</g>
</g>
<g>
	<g>
		<path d="M366.182,390.189c2.85,0.96,5.56,1.085,8.543,1.045c6.099-0.082,11.84,0.98,17.809,2.128
			c7.631,1.467,15.518-0.662,23.134-1.185c1.031-0.071,1.538-1.354,0.211-1.264c-8.898,0.611-17.063,2.396-25.979,0.488
			c-3.228-0.69-6.49-1.114-9.779-1.358c-4.319-0.32-8.602,0.366-12.794-1.046C366.596,388.752,365.051,389.809,366.182,390.189
			L366.182,390.189z"/>
	</g>
</g>
<g>
	<g>
		<path d="M428.852,393.395c9.29,3.21,19.755,2.295,29.307,0.886c0.951-0.141,1.58-1.329,0.248-1.133
			c-9.283,1.37-19.359,2.271-28.385-0.849C429.376,392.075,427.755,393.016,428.852,393.395L428.852,393.395z"/>
	</g>
</g>
<g>
	<g>
		<path d="M428.193,430.486c6.219,0.389,12.426,0.411,18.652,0.216c4.42-0.138,8.782,0.279,13.086-0.93
			c1.153-0.324,0.897-1.3-0.262-0.975c-4.967,1.396-10.687,0.783-15.825,0.905c-4.972,0.118-9.939-0.009-14.901-0.318
			C428.204,429.338,426.887,430.405,428.193,430.486L428.193,430.486z"/>
	</g>
</g>
<g>
	<g>
		<path d="M435.107,424.532c5.787-0.031,11.564-0.403,17.352-0.435c0.598-0.003,2.097-0.913,0.803-0.906
			c-5.787,0.031-11.564,0.403-17.352,0.435C435.313,423.629,433.813,424.539,435.107,424.532L435.107,424.532z"/>
	</g>
</g>
<g>
	<g>
		<path d="M441.891,420.521c6.592-0.597,13.216-0.737,19.737-1.952c0.931-0.174,1.575-1.372,0.25-1.125
			c-6.522,1.215-13.146,1.355-19.737,1.952C441.171,419.484,440.555,420.643,441.891,420.521L441.891,420.521z"/>
	</g>
</g>
<g>
	<g>
		<path d="M447.024,413.831c3.515,0.13,6.8-0.849,10.205-1.563c0.741-0.155,1.725-0.956,0.371-0.672
			c-3.098,0.648-6.115,1.595-9.314,1.477C447.896,413.059,446.083,413.797,447.024,413.831L447.024,413.831z"/>
	</g>
</g>
<g>
	<g>
		<path d="M453.623,408.667c2.133-0.296,3.958-1.318,5.937-2.09c0.313-0.122,0.771-0.552,0.48-0.907
			c-0.305-0.374-0.923-0.241-1.299-0.095c-1.621,0.632-3.164,1.573-4.909,1.814c-0.399,0.056-1.001,0.26-1.078,0.731
			C452.68,408.578,453.292,408.713,453.623,408.667L453.623,408.667z"/>
	</g>
</g>
<g>
	<g>
		<path d="M458.854,402.355c0.374-0.197,0.713-0.452,1.085-0.651c0.191-0.102,0.646-0.452,0.214-0.59
			c-0.42-0.134-0.983,0.025-1.356,0.225s-0.712,0.454-1.085,0.651c-0.192,0.102-0.645,0.452-0.214,0.589
			C457.918,402.714,458.479,402.554,458.854,402.355L458.854,402.355z"/>
	</g>
</g>
<g>
	<g>
		<path d="M333.24,375.552c0.954,0.461,1.965,0.725,3,0.933c0.462,0.094,1.019-0.035,1.365-0.365
			c0.294-0.279,0.217-0.661-0.199-0.744c-0.91-0.185-1.801-0.396-2.641-0.802c-0.424-0.204-0.991-0.079-1.372,0.165
			C333.128,374.909,332.815,375.347,333.24,375.552L333.24,375.552z"/>
	</g>
</g>
<g>
	<g>
		<path d="M343.469,375.465c0.491-0.229,1.101-0.173,1.627-0.174c0.417,0,0.998-0.165,1.287-0.485
			c0.308-0.34-0.266-0.407-0.48-0.407c-1.259,0.001-2.428,0.16-3.578,0.695c-0.205,0.096-0.635,0.457-0.212,0.594
			C342.547,375.828,343.076,375.647,343.469,375.465L343.469,375.465z"/>
	</g>
</g>
<g>
	<g>
		<path d="M320.207,394.346c0.832,0.27,1.676,0.454,2.552,0.474c0.414,0.01,1.003-0.169,1.285-0.488
			c0.306-0.348-0.264-0.417-0.484-0.422c-0.604-0.014-1.216-0.205-1.786-0.39c-0.426-0.138-0.979,0.019-1.357,0.219
			C320.218,393.843,319.774,394.206,320.207,394.346L320.207,394.346z"/>
	</g>
</g>
<g>
	<g>
		<path d="M329.908,394.979c0.506,0,1.012,0,1.518,0c0.465,0,0.97-0.115,1.366-0.366c0.301-0.19,0.265-0.427-0.114-0.427
			c-0.506,0-1.012,0-1.518,0c-0.465,0-0.97,0.115-1.366,0.366C329.493,394.743,329.529,394.979,329.908,394.979L329.908,394.979z"/>
	</g>
</g>
<g>
	<g>
		<path d="M332.078,405.828c0.361,0,0.723,0,1.085,0c0.466,0,0.97-0.11,1.366-0.366c0.298-0.192,0.264-0.438-0.118-0.438
			c-0.361,0-0.723,0-1.085,0c-0.466,0-0.97,0.11-1.366,0.366C331.662,405.582,331.695,405.828,332.078,405.828L332.078,405.828z"/>
	</g>
</g>
<g>
	<g>
		<path d="M332.99,409.062c0.203,0.021,0.589,0.188,0.868,0.217c0.433,0.044,1.035-0.161,1.27-0.549
			c0.249-0.41-0.212-0.614-0.545-0.648c-0.203-0.021-0.589-0.188-0.868-0.217c-0.433-0.044-1.035,0.161-1.27,0.549
			C332.196,408.823,332.657,409.027,332.99,409.062L332.99,409.062z"/>
	</g>
</g>
<g>
	<g>
		<path d="M331.917,415.592c0.764,0.234,1.541,0.256,2.334,0.257c0.416,0,0.997-0.167,1.286-0.484
			c0.31-0.34-0.267-0.403-0.479-0.404c-0.536,0-1.054-0.022-1.57-0.181c-0.427-0.131-0.976,0.026-1.356,0.224
			C331.94,415.102,331.484,415.459,331.917,415.592L331.917,415.592z"/>
	</g>
</g>
<g>
	<g>
		<path d="M330.122,421c0.832,0.016,1.633,0.213,2.436,0.413c0.422,0.104,0.973-0.072,1.351-0.249
			c0.159-0.075,0.664-0.388,0.239-0.493c-0.913-0.227-1.825-0.433-2.77-0.45c-0.46-0.009-0.975,0.123-1.366,0.366
			C329.703,420.778,329.752,420.993,330.122,421L330.122,421z"/>
	</g>
</g>
<g>
	<g>
		<path d="M330.223,424.105c1.513,0,3.022,0.018,4.524,0.214c0.914,0.12,1.986-1.18,0.684-1.35
			c-1.665-0.219-3.344-0.218-5.021-0.218C329.329,422.752,328.909,424.105,330.223,424.105L330.223,424.105z"/>
	</g>
</g>
<g>
	<g>
		<path d="M331.03,427.685c1.808,0,3.615,0,5.423,0c0.44,0,1.014-0.139,1.272-0.535c0.25-0.382-0.209-0.6-0.532-0.6
			c-1.808,0-3.615,0-5.423,0c-0.44,0-1.014,0.139-1.272,0.535C330.248,427.467,330.707,427.685,331.03,427.685L331.03,427.685z"/>
	</g>
</g>
<g>
	<g>
		<path d="M330.389,428.769c1.441,0.223,2.883,0.251,4.339,0.252c0.448,0,1.019-0.133,1.27-0.551
			c0.233-0.389-0.197-0.653-0.547-0.654c-1.299,0-2.615,0.014-3.903-0.186c-0.477-0.073-1.007,0.014-1.365,0.366
			C329.904,428.269,329.955,428.701,330.389,428.769L330.389,428.769z"/>
	</g>
</g>
<g>
	<g>
		<path d="M330.356,432.585c2.169,0,4.338,0,6.507,0c0.635,0,2.086-0.963,0.787-0.963c-2.169,0-4.338,0-6.507,0
			C330.509,431.622,329.058,432.585,330.356,432.585L330.356,432.585z"/>
	</g>
</g>
<g>
	<g>
		<path d="M328.455,435.377c1.665,0.221,3.344,0.22,5.021,0.22c1.078,0.001,1.504-1.344,0.189-1.344
			c-1.512-0.001-3.022-0.019-4.524-0.218C328.231,433.914,327.152,435.204,328.455,435.377L328.455,435.377z"/>
	</g>
</g>
<g>
	<g>
		<path d="M329.506,438.505c2.114-0.017,4.217-0.216,6.316-0.446c0.938-0.103,1.605-1.21,0.266-1.063
			c-1.938,0.212-3.877,0.404-5.828,0.419c-0.438,0.003-1.01,0.143-1.276,0.526C328.725,438.315,329.201,438.507,329.506,438.505
			L329.506,438.505z"/>
	</g>
</g>
<g>
	<g>
		<path d="M327.172,440.214c2.939,0.644,5.921,0.859,8.925,0.876c1.131,0.007,1.459-1.479,0.152-1.486
			c-2.84-0.017-5.649-0.252-8.427-0.858C326.832,438.528,325.893,439.935,327.172,440.214L327.172,440.214z"/>
	</g>
</g>
<g>
	<g>
		<path d="M345.793,385.003c0.071,0,0.144,0,0.216,0c0.451,0,1.02-0.13,1.268-0.555c0.228-0.392-0.193-0.674-0.553-0.674
			c-0.071,0-0.144,0-0.216,0c-0.451,0-1.02,0.13-1.268,0.555C345.013,384.721,345.434,385.003,345.793,385.003L345.793,385.003z"/>
	</g>
</g>
<g>
	<g>
		<path d="M347.367,389.223c1.109,0,1.478-1.428,0.168-1.428C346.426,387.795,346.058,389.223,347.367,389.223L347.367,389.223z"/>
	</g>
</g>
<g>
	<g>
		<path d="M345.355,394.32c0.604,0.018,1.166,0.213,1.734,0.401c0.436,0.144,1.048-0.052,1.365-0.366
			c0.316-0.313,0.185-0.649-0.209-0.78c-0.709-0.234-1.418-0.445-2.17-0.468c-0.446-0.014-1.023,0.14-1.269,0.552
			C344.571,394.056,345.007,394.31,345.355,394.32L345.355,394.32z"/>
	</g>
</g>
<g>
	<g>
		<path d="M345.838,401.331c0.651,0,1.302,0,1.953,0c0.409,0,1.008-0.311,1.07-0.758c0.069-0.499-0.527-0.594-0.883-0.594
			c-0.65,0-1.301,0-1.951,0c-0.41,0-1.009,0.311-1.071,0.758C344.887,401.236,345.483,401.331,345.838,401.331L345.838,401.331z"/>
	</g>
</g>
<g>
	<g>
		<path d="M345.745,405.408c0.294,0.001,0.527,0.013,0.798,0.138c0.38,0.177,0.876,0.048,1.249-0.09
			c0.06-0.022,0.906-0.425,0.567-0.582c-0.454-0.211-0.872-0.292-1.372-0.294c-0.468-0.001-0.97,0.103-1.366,0.366
			C345.327,405.143,345.357,405.407,345.745,405.408L345.745,405.408z"/>
	</g>
</g>
<g>
	<g>
		<path d="M345.992,411.405c0.362,0,0.724,0,1.085,0c0.438,0,1.013-0.142,1.274-0.53c0.255-0.379-0.214-0.581-0.526-0.581
			c-0.362,0-0.724,0-1.085,0c-0.438,0-1.013,0.142-1.274,0.53C345.211,411.203,345.68,411.405,345.992,411.405L345.992,411.405z"/>
	</g>
</g>
<g>
	<g>
		<path d="M346.216,413.376c0.578,0,1.156,0,1.734,0c0.441,0,1.015-0.138,1.271-0.538c0.247-0.383-0.207-0.61-0.535-0.61
			c-0.578,0-1.156,0-1.734,0c-0.441,0-1.015,0.138-1.271,0.538C345.434,413.148,345.888,413.376,346.216,413.376L346.216,413.376z"
			/>
	</g>
</g>
<g>
	<g>
		<path d="M345.818,416.117c1.004,0.23,2.044,0.223,3.067,0.223c0.428,0,1.01-0.325,1.063-0.789
			c0.058-0.509-0.512-0.648-0.896-0.648c-0.863,0-1.725-0.016-2.569-0.211C345.521,414.471,344.545,415.823,345.818,416.117
			L345.818,416.117z"/>
	</g>
</g>
<g>
	<g>
		<path d="M345.976,420.452c0.868,0,1.735,0,2.603,0c0.426,0,1.005-0.155,1.281-0.505c0.285-0.359-0.242-0.481-0.5-0.481
			c-0.868,0-1.735,0-2.603,0c-0.426,0-1.005,0.155-1.281,0.505C345.19,420.33,345.718,420.452,345.976,420.452L345.976,420.452z"/>
	</g>
</g>
<g>
	<g>
		<path d="M344.757,423.028c1.514,0,3.018,0.037,4.522,0.215c0.922,0.108,1.984-1.209,0.68-1.363
			c-1.669-0.196-3.34-0.22-5.019-0.221C343.854,421.659,343.444,423.027,344.757,423.028L344.757,423.028z"/>
	</g>
</g>
<g>
	<g>
		<path d="M344.896,428.276c1.373,0,2.747,0,4.121,0c0.428,0,1.006-0.151,1.279-0.511c0.277-0.365-0.234-0.507-0.508-0.507
			c-1.373,0-2.747,0-4.121,0c-0.428,0-1.006,0.151-1.279,0.511C344.111,428.135,344.623,428.276,344.896,428.276L344.896,428.276z"
			/>
	</g>
</g>
<g>
	<g>
		<path d="M346.472,429.79c1.073,0.245,2.19,0.224,3.285,0.224c0.432,0,1.009-0.329,1.061-0.796c0.056-0.511-0.509-0.661-0.9-0.661
			c-0.936,0-1.87,0-2.787-0.21C346.157,428.125,345.196,429.498,346.472,429.79L346.472,429.79z"/>
	</g>
</g>
<g>
	<g>
		<path d="M345.985,430.219c1.513,0.201,3.027,0.232,4.552,0.232c0.429,0,1.007-0.15,1.278-0.514
			c0.274-0.367-0.231-0.518-0.511-0.518c-1.38-0.001-2.752-0.016-4.122-0.199c-0.463-0.062-1.003,0.063-1.366,0.366
			C345.52,429.834,345.583,430.165,345.985,430.219L345.985,430.219z"/>
	</g>
</g>
<g>
	<g>
		<path d="M346.912,432.199c1.163,0.234,2.313,0.427,3.503,0.444c1.141,0.018,1.448-1.492,0.145-1.512
			c-1.013-0.016-2.013-0.226-3.003-0.425C346.55,430.505,345.628,431.941,346.912,432.199L346.912,432.199z"/>
	</g>
</g>
<g>
	<g>
		<path d="M344.065,435.354c1.874,0.233,3.749,0.42,5.641,0.435c0.458,0.004,1.024-0.126,1.264-0.568
			c0.215-0.398-0.184-0.724-0.566-0.727c-1.891-0.015-3.766-0.201-5.641-0.435C343.886,433.949,342.761,435.191,344.065,435.354
			L344.065,435.354z"/>
	</g>
</g>
<g>
	<g>
		<path d="M343.835,436.58c1.856,0.448,3.747,0.688,5.642,0.902c0.82,0.093,2.025-1.063,0.721-1.211
			c-1.75-0.198-3.49-0.422-5.204-0.836c-0.459-0.11-1.028,0.032-1.366,0.366C343.33,436.095,343.421,436.479,343.835,436.58
			L343.835,436.58z"/>
	</g>
</g>
<g>
	<g>
		<path d="M341.689,438.398c3.192,1.032,6.475,1.608,9.767,2.22c0.958,0.178,1.956-1.175,0.666-1.414
			c-3.142-0.584-6.272-1.131-9.319-2.116C341.968,436.817,340.525,438.021,341.689,438.398L341.689,438.398z"/>
	</g>
</g>
<g>
	<g>
		<path d="M259.051,357.269c2.369,0.642,4.766,0.504,7.194,0.488c1.096-0.007,1.489-1.402,0.177-1.395
			c-2.095,0.013-4.207,0.173-6.252-0.381C259.352,355.76,257.883,356.953,259.051,357.269L259.051,357.269z"/>
	</g>
</g>
<g>
	<g>
		<path d="M262.068,365.034c0.76,0,1.501,0.005,2.203,0.332c0.433,0.202,0.984,0.097,1.373-0.159
			c0.264-0.173,0.58-0.635,0.147-0.837c-0.961-0.448-1.953-0.536-3.001-0.537c-0.447,0-1.018,0.134-1.27,0.55
			C261.287,364.771,261.72,365.033,262.068,365.034L262.068,365.034z"/>
	</g>
</g>
<g>
	<g>
		<path d="M259.063,375.108c1.793,0.67,3.614,1.294,5.204,2.387c0.546,0.375,2.324-0.415,1.53-0.961
			c-1.59-1.094-3.41-1.718-5.205-2.387c-0.449-0.168-0.965-0.084-1.37,0.171C258.988,374.465,258.611,374.94,259.063,375.108
			L259.063,375.108z"/>
	</g>
</g>
<g>
	<g>
		<path d="M264.088,385.346c0.199-0.042,0.408-0.105,0.576-0.225c0.025-0.019,0.051-0.036,0.076-0.055
			c0.297-0.211,0.225-0.19-0.219,0.061c0.301-0.063,0.936-0.372,0.826-0.781c-0.115-0.431-0.805-0.327-1.106-0.264
			c-0.198,0.042-0.408,0.105-0.575,0.225c-0.025,0.019-0.051,0.036-0.076,0.055c-0.297,0.211-0.225,0.19,0.218-0.061
			c-0.301,0.063-0.936,0.372-0.825,0.781C263.098,385.513,263.786,385.409,264.088,385.346L264.088,385.346z"/>
	</g>
</g>
<g>
	<g>
		<path d="M228.497,268.827c0,1.952,0,3.904,0,5.856c0,0.342,1.932,0.056,1.932-0.518c0-1.952,0-3.904,0-5.856
			C230.428,267.968,228.497,268.254,228.497,268.827L228.497,268.827z"/>
	</g>
</g>
<g>
	<g>
		<path d="M208.753,271.92c0,0.361,0,0.724,0,1.085c0,0.912,1.943,0.546,1.943-0.197c0-0.361,0-0.724,0-1.085
			C210.697,270.811,208.753,271.177,208.753,271.92L208.753,271.92z"/>
	</g>
</g>
<g>
	<g>
		<path d="M199.867,273.165c0.296,1.882,1.636,3.214,3.033,4.392c0.598,0.504,2.323-0.368,1.504-1.059
			c-1.226-1.033-2.347-2.21-2.605-3.851C201.669,271.826,199.731,272.305,199.867,273.165L199.867,273.165z"/>
	</g>
</g>
<g>
	<g>
		<path d="M171.725,277.565c0.375,0.198,0.615,0.428,0.814,0.805c0.236,0.448,2.067-0.262,1.932-0.518
			c-0.221-0.419-0.501-0.708-0.921-0.93c-0.337-0.178-0.914,0.016-1.238,0.13C172.253,277.073,171.433,277.412,171.725,277.565
			L171.725,277.565z"/>
	</g>
</g>
<g>
	<g>
		<path d="M161.694,277.503c0.695,1.774,1.782,3.324,2.882,4.866c0.317,0.443,2.184-0.18,1.808-0.707
			c-1.059-1.482-2.089-2.971-2.758-4.677C163.401,276.413,161.5,277.009,161.694,277.503L161.694,277.503z"/>
	</g>
</g>
<g>
	<g>
		<path d="M150.469,281.467c0.072,0.073,0.145,0.146,0.217,0.218c0.333,0.334,2.075-0.388,1.825-0.639
			c-0.072-0.073-0.145-0.146-0.217-0.218C151.961,280.494,150.219,281.216,150.469,281.467L150.469,281.467z"/>
	</g>
</g>
<g>
	<g>
		<path d="M137.186,283.142c0.027,1.135,0.375,2.238,0.867,3.254c0.228,0.469,2.082-0.208,1.932-0.518
			c-0.493-1.016-0.84-2.119-0.867-3.254C139.109,282.307,137.172,282.604,137.186,283.142L137.186,283.142z"/>
	</g>
</g>
<g>
	<g>
		<path d="M129.377,284.443c0.705,0.973,1.091,2.078,1.301,3.253c0.082,0.457,2.026,0.011,1.932-0.518
			c-0.21-1.175-0.597-2.28-1.301-3.253C130.944,283.423,129.191,284.187,129.377,284.443L129.377,284.443z"/>
	</g>
</g>
<g>
	<g>
		<path d="M116.372,284.769c-0.43,1.473,0.015,2.909,0.92,4.103c0.324,0.428,2.18-0.209,1.81-0.697
			c-0.805-1.062-1.194-2.404-0.814-3.706C118.441,283.942,116.532,284.217,116.372,284.769L116.372,284.769z"/>
	</g>
</g>
<g>
	<g>
		<path d="M109.627,286.428c-0.417,1.878,0.106,3.566,1.179,5.123c0.497,0.721,2.338-0.023,1.769-0.852
			c-0.945-1.371-1.356-2.772-0.991-4.42C111.794,285.331,109.817,285.57,109.627,286.428L109.627,286.428z"/>
	</g>
</g>
<g>
	<g>
		<path d="M275.646,264.274c-0.669,0.908-1.172,1.888-1.594,2.932c-0.176,0.435,1.698,0.225,1.914-0.311
			c0.386-0.956,0.83-1.875,1.443-2.709c0.255-0.346-0.218-0.407-0.477-0.395C276.549,263.812,275.895,263.937,275.646,264.274
			L275.646,264.274z"/>
	</g>
</g>
<g>
	<g>
		<path d="M283.857,264.379c-0.626,0.835-1.256,1.672-1.734,2.604c-0.469,0.913,1.483,0.802,1.824,0.137
			c0.479-0.931,1.108-1.768,1.734-2.604c0.294-0.392-0.248-0.675-0.559-0.699C284.629,263.779,284.151,263.985,283.857,264.379
			L283.857,264.379z"/>
	</g>
</g>
<g>
	<g>
		<path d="M295.96,263.74c-0.191,0.573-0.374,1.177-0.791,1.63c-0.3,0.325,0.26,0.378,0.469,0.365
			c0.413-0.025,0.994-0.154,1.289-0.475c0.485-0.526,0.721-1.173,0.943-1.841C298.017,262.981,296.133,263.222,295.96,263.74
			L295.96,263.74z"/>
	</g>
</g>
<g>
	<g>
		<path d="M307.662,262.618c-0.163,0.476-0.359,0.93-0.584,1.379c-0.412,0.824,1.52,0.589,1.797,0.033
			c0.271-0.541,0.521-1.085,0.717-1.658c0.145-0.421-0.62-0.432-0.831-0.404C308.371,262.018,307.804,262.201,307.662,262.618
			L307.662,262.618z"/>
	</g>
</g>
<g>
	<g>
		<path d="M331.536,262.675c-0.681,0.92-1.272,1.9-1.952,2.82c-0.191,0.26,0.717,0.151,0.762,0.144
			c0.359-0.068,0.905-0.187,1.139-0.503c0.68-0.92,1.271-1.9,1.952-2.82c0.192-0.26-0.717-0.151-0.762-0.144
			C332.315,262.24,331.771,262.358,331.536,262.675L331.536,262.675z"/>
	</g>
</g>
<g>
	<g>
		<path d="M341.775,262.456c-0.425,0.825-0.963,1.577-1.612,2.239c-0.288,0.293-0.221,0.638,0.197,0.736
			c0.439,0.104,1.044-0.038,1.365-0.365c0.737-0.751,1.377-1.595,1.858-2.532C344.027,261.673,342.084,261.855,341.775,262.456
			L341.775,262.456z"/>
	</g>
</g>
<g>
	<g>
		<path d="M351.049,262.867c-0.413,1.38-1.089,2.625-1.735,3.904c-0.176,0.349,0.682,0.272,0.792,0.254
			c0.36-0.059,0.938-0.202,1.122-0.564c0.646-1.28,1.321-2.525,1.735-3.904C353.108,262.069,351.209,262.334,351.049,262.867
			L351.049,262.867z"/>
	</g>
</g>
<g>
	<g>
		<path d="M361.881,262.421c-0.914,0.709-1.629,1.585-2.157,2.613c-0.182,0.353,0.683,0.284,0.794,0.266
			c0.37-0.059,0.932-0.205,1.12-0.572c0.43-0.834,1.003-1.582,1.747-2.158c0.295-0.229,0.254-0.476-0.138-0.515
			C362.806,262.012,362.235,262.146,361.881,262.421L361.881,262.421z"/>
	</g>
</g>
<g>
	<g>
		<path d="M220.199,259.379c5.094-0.087,10.091-1.212,15.182-1.302c0.746-0.014,2.044-1.163,0.739-1.141
			c-5.093,0.091-10.089,1.215-15.182,1.302C220.192,258.251,218.894,259.4,220.199,259.379L220.199,259.379z"/>
	</g>
</g>
<g>
	<g>
		<path d="M224.31,253.675c4.52,1.065,8.822,0.943,13.299-0.267c1.153-0.311,0.909-1.225-0.245-0.912
			c-4.022,1.086-7.815,1.12-11.86,0.167C224.92,252.525,223.229,253.42,224.31,253.675L224.31,253.675z"/>
	</g>
</g>
<g>
	<g>
		<path d="M228.472,249.081c3.677,0.06,7.36,0.778,10.922-0.477c1.143-0.403,0.828-1.694-0.344-1.281
			c-3.22,1.135-6.575,0.445-9.899,0.391C228.246,247.699,227.165,249.06,228.472,249.081L228.472,249.081z"/>
	</g>
</g>
<g>
	<g>
		<path d="M231.503,242.557c2.364,0.235,4.665,0.372,7.017-0.046c1.22-0.217,0.854-1.452-0.333-1.241
			c-1.991,0.354-4,0.152-5.996-0.046C231.292,241.135,230.195,242.427,231.503,242.557L231.503,242.557z"/>
	</g>
</g>
<g>
	<g>
		<path d="M231.223,234.484c5.28,0.031,10.55,0.371,15.824-0.004c0.515-0.037,2.109-0.886,0.832-0.796
			c-5.136,0.365-10.268,0.026-15.407-0.004C232.058,233.678,230.265,234.479,231.223,234.484L231.223,234.484z"/>
	</g>
</g>
<g>
	<g>
		<path d="M241.853,229.286c2.189,0,4.369-0.021,6.521-0.466c0.33-0.068,0.965-0.187,1.128-0.542
			c0.152-0.331-0.672-0.234-0.78-0.212c-1.858,0.385-3.734,0.401-5.625,0.402c-0.468,0-0.97,0.105-1.366,0.366
			C241.436,229.029,241.467,229.287,241.853,229.286L241.853,229.286z"/>
	</g>
</g>
<g>
	<g>
		<path d="M241.221,223.284c2.177,0.233,4.33,0.634,6.507,0.867c0.463,0.05,0.997-0.073,1.366-0.366
			c0.297-0.236,0.24-0.55-0.159-0.593c-2.176-0.233-4.33-0.634-6.507-0.867c-0.463-0.049-0.997,0.073-1.366,0.366
			C240.765,222.927,240.822,223.241,241.221,223.284L241.221,223.284z"/>
	</g>
</g>
<g>
	<g>
		<path d="M240.439,217.229c4.73,0.054,9.553,0.806,14.144-0.696c1.164-0.381,0.825-1.725-0.358-1.338
			c-4.398,1.438-9.083,0.658-13.618,0.606C239.497,215.788,239.131,217.213,240.439,217.229L240.439,217.229z"/>
	</g>
</g>
<g>
	<g>
		<path d="M243.229,117.895c0.46,0.02,0.883,0.184,1.295,0.38c0.821,0.392,2.226-0.793,1.108-1.326
			c-0.539-0.257-1.142-0.462-1.742-0.487c-0.474-0.02-1.038,0.124-1.256,0.598C242.44,117.476,242.805,117.877,243.229,117.895
			L243.229,117.895z"/>
	</g>
</g>
<g>
	<g>
		<path d="M242.507,123.703c0.072,0,0.145,0,0.218,0c0.417,0,0.998-0.165,1.286-0.487c0.305-0.343-0.263-0.416-0.483-0.416
			c-0.072,0-0.145,0-0.218,0c-0.417,0-0.998,0.165-1.286,0.487C241.719,123.63,242.287,123.703,242.507,123.703L242.507,123.703z"/>
	</g>
</g>
<g>
	<g>
		<path d="M241.211,136.956c1.161-0.014,2.31-0.202,3.471-0.217c0.424-0.005,0.999-0.156,1.283-0.497
			c0.293-0.351-0.25-0.455-0.492-0.452c-1.161,0.014-2.31,0.202-3.471,0.217c-0.424,0.005-0.999,0.156-1.283,0.497
			C240.426,136.854,240.969,136.959,241.211,136.956L241.211,136.956z"/>
	</g>
</g>
<g>
	<g>
		<path d="M241.038,147.091c0.795,0,1.591,0,2.386,0c0.456,0,1.022-0.126,1.266-0.563c0.221-0.395-0.187-0.703-0.56-0.703
			c-0.795,0-1.591,0-2.386,0c-0.456,0-1.022,0.126-1.266,0.563C240.257,146.783,240.665,147.091,241.038,147.091L241.038,147.091z"
			/>
	</g>
</g>
<g>
	<g>
		<path d="M241.329,159.286c0.584-0.283,1.2-0.381,1.844-0.39c0.43-0.005,1.004-0.149,1.279-0.511
			c0.276-0.363-0.233-0.51-0.507-0.506c-1.347,0.017-2.585,0.326-3.794,0.912c-0.254,0.123-0.595,0.521-0.186,0.692
			C240.402,159.667,240.933,159.478,241.329,159.286L241.329,159.286z"/>
	</g>
</g>
<g>
	<g>
		<path d="M237.141,166.206c2.604,0.016,5.204,0.201,7.808,0.216c0.871,0.005,1.998-1.313,0.691-1.32
			c-2.604-0.016-5.204-0.201-7.808-0.216C236.961,164.88,235.834,166.198,237.141,166.206L237.141,166.206z"/>
	</g>
</g>
<g>
	<g>
		<path d="M235.587,173.203c4.255,0.413,8.527,0.46,12.794,0.669c0.693,0.034,2.071-0.973,0.768-1.037
			c-4.123-0.202-8.254-0.234-12.365-0.633C236.217,172.147,234.519,173.1,235.587,173.203L235.587,173.203z"/>
	</g>
</g>
<g>
	<g>
		<path d="M237.329,182.365c3.269,0.031,6.529,0.382,9.788-0.013c0.941-0.114,1.599-1.243,0.261-1.081
			c-3.092,0.374-6.198,0.017-9.299-0.013C237.346,181.252,236.022,182.353,237.329,182.365L237.329,182.365z"/>
	</g>
</g>
<g>
	<g>
		<path d="M231.704,189.995c6.293,1.252,12.641,1.947,19.037,2.405c0.412,0.03,2.218-0.721,1.252-0.79
			c-6.282-0.45-12.521-1.135-18.702-2.365C232.836,189.155,231.161,189.887,231.704,189.995L231.704,189.995z"/>
	</g>
</g>
<g>
	<g>
		<path d="M233.246,200.074c3.988,0.236,7.959,0.645,11.929,1.084c0.937,0.104,1.979-1.243,0.674-1.387
			c-3.97-0.439-7.941-0.848-11.929-1.084C232.992,198.632,231.937,199.997,233.246,200.074L233.246,200.074z"/>
	</g>
</g>
<g>
	<g>
		<path d="M239.297,206.067c3.034,0.2,6.07,0.216,9.109,0.217c0.809,0,2.023-1.228,0.716-1.228c-3.039,0-6.076-0.017-9.109-0.217
			C239.189,204.785,237.987,205.98,239.297,206.067L239.297,206.067z"/>
	</g>
</g>
<g>
	<g>
		<path d="M244.472,211.81c1.101,0,2.194-0.031,3.279-0.235c0.35-0.066,0.985-0.209,1.108-0.618c0.12-0.398-0.614-0.385-0.816-0.347
			c-0.93,0.175-1.851,0.198-2.794,0.198c-0.427,0-1.005,0.154-1.28,0.508C243.687,211.678,244.207,211.81,244.472,211.81
			L244.472,211.81z"/>
	</g>
</g>
<g>
	<g>
		<path d="M154.42,235.73c-0.457,0.36-0.987,0.246-0.417,0.244c0.46-0.001,0.969-0.131,1.366-0.366
			c0.309-0.183,0.264-0.383-0.103-0.382c-0.89,0.002-1.865,0.11-2.587,0.679c-0.35,0.276,0.312,0.29,0.446,0.276
			C153.563,236.138,154.067,236.008,154.42,235.73L154.42,235.73z"/>
	</g>
</g>
<g>
	<g>
		<path d="M155.192,242.356c0.361,0,0.723,0,1.084,0c0.412,0,1.008-0.312,1.069-0.763c0.067-0.5-0.524-0.602-0.884-0.602
			c-0.361,0-0.723,0-1.084,0c-0.412,0-1.008,0.312-1.069,0.763C154.241,242.255,154.833,242.356,155.192,242.356L155.192,242.356z"
			/>
	</g>
</g>
<g>
	<g>
		<path d="M152.498,246.033c0.795,0,1.591,0,2.386,0c0.418,0,0.999-0.164,1.286-0.489c0.304-0.344-0.262-0.42-0.484-0.42
			c-0.795,0-1.591,0-2.386,0c-0.418,0-0.999,0.164-1.286,0.489C151.71,245.956,152.276,246.033,152.498,246.033L152.498,246.033z"/>
	</g>
</g>
<g>
	<g>
		<path d="M153.896,250.833c0.506,0,1.012,0,1.518,0c0.42,0,1.009-0.318,1.066-0.775c0.063-0.504-0.518-0.624-0.89-0.624
			c-0.506,0-1.012,0-1.518,0c-0.42,0-1.009,0.318-1.066,0.775C152.942,250.713,153.523,250.833,153.896,250.833L153.896,250.833z"/>
	</g>
</g>
<g>
	<g>
		<path d="M150.556,255.152c1.8,0.208,3.607,0.226,5.417,0.227c0.626,0,2.089-0.949,0.791-0.949c-1.669,0-3.333-0.015-4.993-0.207
			c-0.457-0.053-0.999,0.086-1.366,0.366C150.101,254.822,150.167,255.107,150.556,255.152L150.556,255.152z"/>
	</g>
</g>
<g>
	<g>
		<path d="M152.496,260.123c1.229,0,2.458,0,3.687,0c0.417,0,0.998-0.165,1.287-0.485c0.307-0.341-0.265-0.409-0.481-0.409
			c-1.229,0-2.458,0-3.687,0c-0.417,0-0.998,0.165-1.287,0.485C151.708,260.055,152.28,260.123,152.496,260.123L152.496,260.123z"/>
	</g>
</g>
<g>
	<g>
		<path d="M152.058,264.85c1.301,0,2.603,0,3.904,0c0.466,0,0.97-0.111,1.366-0.366c0.298-0.192,0.265-0.438-0.117-0.438
			c-1.301,0-2.603,0-3.904,0c-0.466,0-0.97,0.111-1.366,0.366C151.642,264.604,151.676,264.85,152.058,264.85L152.058,264.85z"/>
	</g>
</g>
<g>
	<g>
		<path d="M152.279,268.119c1.224,0.192,2.463,0.241,3.687,0.434c0.432,0.068,1.012-0.127,1.366-0.366
			c0.334-0.226,0.225-0.415-0.126-0.47c-1.224-0.192-2.463-0.241-3.687-0.434c-0.432-0.068-1.012,0.127-1.366,0.366
			C151.818,267.875,151.928,268.064,152.279,268.119L152.279,268.119z"/>
	</g>
</g>
<g>
	<g>
		<path d="M150.59,268.954c0.912,0.228,1.827,0.44,2.771,0.458c0.464,0.009,0.974-0.108,1.366-0.366
			c0.3-0.198,0.26-0.446-0.122-0.454c-0.833-0.016-1.629-0.208-2.434-0.409c-0.43-0.107-0.967,0.052-1.352,0.239
			C150.654,268.502,150.155,268.845,150.59,268.954L150.59,268.954z"/>
	</g>
</g>
<g>
	<g>
		<path d="M152.726,271.232c0.723,0,1.446,0,2.169,0c0.425,0,1.004-0.154,1.281-0.506c0.284-0.359-0.241-0.484-0.501-0.484
			c-0.723,0-1.446,0-2.169,0c-0.425,0-1.004,0.154-1.281,0.506C151.94,271.107,152.465,271.232,152.726,271.232L152.726,271.232z"/>
	</g>
</g>
<g>
	<g>
		<path d="M259.488,401.101c1.57,0.489,3.182,0.491,4.811,0.492c1.115,0,1.475-1.442,0.164-1.443c-1.298,0-2.612,0.019-3.865-0.371
			c-0.469-0.146-1.041-0.021-1.365,0.365C258.949,400.48,259.048,400.964,259.488,401.101L259.488,401.101z"/>
	</g>
</g>
<g>
	<g>
		<path d="M260.119,408.865c0.145,0,0.29,0,0.435,0c0.452,0,1.021-0.13,1.267-0.557c0.228-0.392-0.191-0.68-0.553-0.68
			c-0.145,0-0.289,0-0.434,0c-0.453,0-1.021,0.13-1.268,0.557C259.34,408.577,259.758,408.865,260.119,408.865L260.119,408.865z"/>
	</g>
</g>
<g>
	<g>
		<path d="M258.332,421.246c0.556,0,2.107-0.84,0.82-0.84C258.596,420.406,257.044,421.246,258.332,421.246L258.332,421.246z"/>
	</g>
</g>
<g>
	<g>
		<path d="M260.389,271.869c1.098,0,1.488-1.396,0.176-1.396C259.467,270.473,259.076,271.869,260.389,271.869L260.389,271.869z"/>
	</g>
</g>
<g>
	<g>
		<path d="M261.613,276.874c0.102,0.011,0.188,0.143,0.27,0.211c0.168,0.139,0.386,0.202,0.598,0.224
			c0.469,0.049,0.995-0.058,1.366-0.366c0.289-0.24,0.24-0.588-0.169-0.63c-0.101-0.011-0.188-0.143-0.27-0.211
			c-0.168-0.14-0.385-0.202-0.598-0.224c-0.469-0.049-0.995,0.058-1.366,0.366C261.155,276.484,261.203,276.832,261.613,276.874
			L261.613,276.874z"/>
	</g>
</g>
<g>
	<g>
		<path d="M141.509,401.918c5.216-1.879,9.545-5.5,14.749-7.376c1.302-0.469,0.058-0.609-0.646-0.355
			c-5.215,1.88-9.545,5.5-14.749,7.376C139.562,402.031,140.806,402.172,141.509,401.918L141.509,401.918z"/>
	</g>
</g>
<g>
	<g>
		<path d="M158.665,405.247c6.123-1.749,12.216-3.547,18.038-6.157c1.23-0.552,0.099-1.157-0.758-0.773
			c-5.659,2.538-11.581,4.286-17.533,5.987C157.263,404.632,157.509,405.577,158.665,405.247L158.665,405.247z"/>
	</g>
</g>
<g>
	<g>
		<path d="M185.566,408.848c3.224-1.869,6.26-4.016,9.291-6.179c0.82-0.585-1.123-0.391-1.497-0.123
			c-2.914,2.08-5.828,4.169-8.928,5.966C183.315,409.158,185.075,409.133,185.566,408.848L185.566,408.848z"/>
	</g>
</g>
<g>
	<g>
		<path d="M122.417,352.448c7.898-1.219,15.904-0.518,23.858-0.866c1.008-0.044,1.562-1.246,0.232-1.188
			c-7.959,0.349-15.953-0.354-23.858,0.866C121.68,351.41,121.09,352.653,122.417,352.448L122.417,352.448z"/>
	</g>
</g>
<g>
	<g>
		<path d="M133.405,363.13c1.625,0.001,3.235,0.034,4.826,0.4c0.444,0.103,0.957-0.027,1.355-0.229
			c0.163-0.083,0.668-0.464,0.219-0.567c-1.843-0.424-3.703-0.462-5.585-0.463C133.651,362.27,132.115,363.13,133.405,363.13
			L133.405,363.13z"/>
	</g>
</g>
<g>
	<g>
		<path d="M223.934,368.001c0.002,9.197,0.095,18.36,1.308,27.491c0.104,0.78,2.042,0.316,1.932-0.518
			c-1.198-9.02-1.292-18.081-1.294-27.165C225.879,366.886,223.934,367.246,223.934,368.001L223.934,368.001z"/>
	</g>
</g>
<g>
	<g>
		<path d="M235.668,366.78c-0.833,3.018-1.307,6.098-1.75,9.192c-0.028,0.197,1.85,0.054,1.932-0.518
			c0.435-3.038,0.903-6.063,1.721-9.026C237.672,366.062,235.797,366.311,235.668,366.78L235.668,366.78z"/>
	</g>
</g>
<g>
	<g>
		<path d="M331.086,322.183c1.531,5.686,0.594,11.605,1.734,17.352c0.169,0.852,2.105,0.355,1.932-0.518
			c-1.142-5.749-0.2-11.656-1.734-17.352C332.788,320.814,330.856,321.332,331.086,322.183L331.086,322.183z"/>
	</g>
</g>
<g>
	<g>
		<path d="M340.417,328.027c0.988-0.314,1.936-0.366,2.967-0.366c0.433-0.001,1.009-0.147,1.276-0.521
			c0.267-0.372-0.225-0.542-0.517-0.542c-1.362,0.001-2.668,0.085-3.975,0.501c-0.259,0.083-0.949,0.321-0.842,0.723
			C339.431,328.208,340.159,328.109,340.417,328.027L340.417,328.027z"/>
	</g>
</g>
<g>
	<g>
		<path d="M350.171,303.096c1.071,8,4.172,15.508,5.641,23.425c0.137,0.739,2.076,0.259,1.932-0.518
			c-1.469-7.917-4.569-15.425-5.641-23.425C352.005,301.849,350.064,302.305,350.171,303.096L350.171,303.096z"/>
	</g>
</g>
<g>
	<g>
		<path d="M231.467,458.67c0.967-1.766,2.378-3.186,3.789-4.6c-0.591-0.006-1.182-0.012-1.772-0.018
			c0.455,1.374,0.811,2.697,0.856,4.155c0.031,1.016,1.816,0.682,1.955-0.154c0.41-2.461,1.439-4.226,3.564-5.564
			c-0.535-0.058-1.069-0.114-1.604-0.172c0.395,2.592,0.472,5.216,0.867,7.808c0.134,0.878,2.071,0.394,1.932-0.518
			c-0.395-2.592-0.472-5.216-0.867-7.808c-0.108-0.709-1.25-0.395-1.604-0.172c-2.464,1.554-3.769,3.724-4.244,6.58
			c0.652-0.052,1.303-0.103,1.955-0.154c-0.049-1.579-0.384-3.022-0.88-4.519c-0.249-0.752-1.374-0.416-1.772-0.018
			c-1.513,1.517-2.984,3.053-4.02,4.943C229.104,459.409,231.066,459.401,231.467,458.67L231.467,458.67z"/>
	</g>
</g>
<g>
	<g>
		<path d="M293.78,452.752c-0.033,1.749-0.432,3.433-0.854,5.121c-0.097,0.385,1.786,0.117,1.902-0.35
			c0.436-1.744,0.849-3.483,0.883-5.289C295.717,451.959,293.79,452.211,293.78,452.752L293.78,452.752z"/>
	</g>
</g>
<g>
	<g>
		<path d="M295.949,456.656c0,0.434,0,0.867,0,1.301c0,0.329,1.932,0.047,1.932-0.518c0-0.434,0-0.867,0-1.301
			C297.881,455.81,295.949,456.092,295.949,456.656L295.949,456.656z"/>
	</g>
</g>
<g>
	<g>
		<path d="M357.112,452.752c0,2.024,0,4.048,0,6.072c0,0.479,1.932,0.15,1.932-0.518c0-2.024,0-4.048,0-6.072
			C359.044,451.755,357.112,452.084,357.112,452.752L357.112,452.752z"/>
	</g>
</g>
<g>
	<g>
		<path d="M361.017,458.824c0,0.434,0,0.867,0,1.301c0,0.269,1.932,0.005,1.932-0.518c0-0.434,0-0.867,0-1.301
			C362.948,458.038,361.017,458.302,361.017,458.824L361.017,458.824z"/>
	</g>
</g>
<g>
	<g>
		<path d="M284.146,432.081c1.012,0,2.024,0,3.037,0c0.468,0,0.97-0.104,1.366-0.365c0.295-0.195,0.265-0.453-0.122-0.453
			c-1.012,0-2.024,0-3.037,0c-0.468,0-0.97,0.104-1.366,0.365C283.729,431.823,283.76,432.081,284.146,432.081L284.146,432.081z"/>
	</g>
</g>
<g>
	<g>
		<path d="M291.783,433.581c0.039,0.004,0.247,0.136,0.336,0.221c0.334,0.322,0.904,0.24,1.291,0.068
			c0.245-0.109,0.831-0.536,0.492-0.861c-0.394-0.379-0.855-0.594-1.4-0.645c-0.437-0.041-1.034,0.157-1.269,0.553
			C290.99,433.328,291.441,433.549,291.783,433.581L291.783,433.581z"/>
	</g>
</g>
<g>
	<g>
		<path d="M296.17,435.695c0.56,0.507,1.236,0.579,1.96,0.581c0.42,0.002,1.009-0.319,1.065-0.776
			c0.063-0.506-0.518-0.625-0.892-0.626c-0.292-0.001-0.427-0.092-0.644-0.288C297.03,434.016,295.343,434.946,296.17,435.695
			L296.17,435.695z"/>
	</g>
</g>
<g>
	<g>
		<path d="M301.614,435.81c-0.167,0.146,0.163,0.006,0.256-0.004c0.254-0.026,0.511-0.024,0.767-0.025
			c0.457,0,1.022-0.125,1.265-0.565c0.217-0.396-0.186-0.715-0.563-0.714c-1.185,0-2.377,0.016-3.313,0.84
			c-0.334,0.295-0.163,0.721,0.224,0.835C300.732,436.318,301.25,436.13,301.614,435.81L301.614,435.81z"/>
	</g>
</g>
<g>
	<g>
		<path d="M305.487,435.786c0.345-0.036,0.645-0.127,0.944-0.306c0.116-0.069,0.226-0.158,0.323-0.253
			c0.185-0.181-0.24,0.107-0.399,0.124c0.401-0.042,1.003-0.271,1.076-0.736c0.074-0.467-0.535-0.589-0.871-0.555
			c-0.345,0.036-0.645,0.127-0.943,0.306c-0.117,0.069-0.226,0.158-0.323,0.253c-0.185,0.181,0.238-0.107,0.398-0.124
			c-0.401,0.042-1.003,0.271-1.076,0.736C304.542,435.698,305.151,435.82,305.487,435.786L305.487,435.786z"/>
	</g>
</g>
<g>
	<g>
		<path d="M308.733,435.437c0.516,0.018,0.819,0.213,1.18,0.573c0.356,0.356,0.868,0.388,1.318,0.166
			c0.305-0.149,0.802-0.679,0.445-1.035c-0.655-0.654-1.325-1.133-2.289-1.165c-0.479-0.016-1.038,0.119-1.255,0.604
			C307.945,434.995,308.301,435.422,308.733,435.437L308.733,435.437z"/>
	</g>
</g>
<g>
	<g>
		<path d="M312.421,436.524c0.022,0.629,0.454,0.964,1.069,1.027c0.453,0.047,1.042-0.149,1.261-0.58
			c0.218-0.428-0.188-0.729-0.577-0.77c0.114,0.005,0.187,0.05,0.218,0.135c-0.026-0.063-0.027-0.247-0.018,0.023
			C314.339,435.376,312.392,435.706,312.421,436.524L312.421,436.524z"/>
	</g>
</g>
<g>
	<g>
		<path d="M314.935,437.68c0.376,0,2.19-0.742,1.266-0.742C315.824,436.938,314.01,437.68,314.935,437.68L314.935,437.68z"/>
	</g>
</g>
<g>
	<g>
		<path d="M300.446,429.191c0.289,0,0.577,0,0.866,0c0.438,0,1.013-0.142,1.273-0.531c0.255-0.379-0.213-0.584-0.527-0.584
			c-0.289,0-0.577,0-0.866,0c-0.438,0-1.013,0.142-1.274,0.531C299.664,428.986,300.132,429.191,300.446,429.191L300.446,429.191z"
			/>
	</g>
</g>
<g>
	<g>
		<path d="M303.231,429.036c0.37,0.036,0.772,0.556,1.016,0.797c0.363,0.361,2.134-0.351,1.818-0.664
			c-0.473-0.47-0.899-0.871-1.586-0.938c-0.443-0.043-0.996,0.127-1.366,0.365C302.789,428.807,302.873,429.002,303.231,429.036
			L303.231,429.036z"/>
	</g>
</g>
<g>
	<g>
		<path d="M306.534,430.553c0.579,0,1.157,0,1.735,0c0.452,0,1.021-0.13,1.268-0.557c0.228-0.392-0.192-0.678-0.553-0.678
			c-0.579,0-1.157,0-1.735,0c-0.452,0-1.021,0.13-1.268,0.557C305.754,430.267,306.174,430.553,306.534,430.553L306.534,430.553z"/>
	</g>
</g>
<g>
	<g>
		<path d="M310.869,430.541c0.578,0,1.157,0,1.735,0c0.449,0,1.019-0.133,1.269-0.552c0.232-0.39-0.196-0.659-0.548-0.659
			c-0.578,0-1.157,0-1.735,0c-0.449,0-1.019,0.133-1.269,0.552C310.089,430.271,310.518,430.541,310.869,430.541L310.869,430.541z"
			/>
	</g>
</g>
<g>
	<g>
		<path d="M313.902,429.229c1.046-0.001,1.977-0.119,2.929-0.58c0.262-0.126,0.806-0.492,0.497-0.843
			c-0.29-0.331-0.946-0.224-1.288-0.058c-0.49,0.236-0.871,0.289-1.411,0.289c-0.447,0.001-1.018,0.134-1.271,0.548
			C313.122,428.973,313.558,429.229,313.902,429.229L313.902,429.229z"/>
	</g>
</g>
<g>
	<g>
		<path d="M317.645,428.453c0.289,0,0.578,0,0.867,0c0.414,0,1.009-0.313,1.068-0.765c0.066-0.502-0.522-0.606-0.885-0.606
			c-0.289,0-0.578,0-0.867,0c-0.414,0-1.009,0.313-1.068,0.765C316.693,428.349,317.282,428.453,317.645,428.453L317.645,428.453z"
			/>
	</g>
</g>
<g>
	<g>
		<path d="M353.769,428.206c0.579,0,2.103-0.877,0.811-0.877C354,427.329,352.477,428.206,353.769,428.206L353.769,428.206z"/>
	</g>
</g>
<g>
	<g>
		<path d="M357.148,427.172c0.289-0.288,0.578-0.577,0.867-0.867c0.321-0.323,0.158-0.776-0.245-0.913
			c-0.478-0.163-1.021,0.02-1.366,0.366c-0.288,0.289-0.577,0.578-0.867,0.867c-0.323,0.321-0.156,0.776,0.245,0.913
			C356.262,427.701,356.802,427.518,357.148,427.172L357.148,427.172z"/>
	</g>
</g>
<g>
	<g>
		<path d="M358.542,426.042c0.806-0.075,1.564-0.35,2.155-0.917c0.333-0.32-0.288-0.413-0.48-0.405
			c-0.448,0.021-0.957,0.168-1.287,0.485c-0.024,0.023-0.016,0.017,0.026-0.021c-0.281,0.239-0.324,0.035,0.393-0.032
			c-0.433,0.04-0.979,0.146-1.286,0.485C357.764,425.965,358.317,426.063,358.542,426.042L358.542,426.042z"/>
	</g>
</g>
<g>
	<g>
		<path d="M361.796,424.715c0.29,0,0.579,0,0.868,0c0.47,0,0.97-0.099,1.366-0.366c0.292-0.197,0.265-0.472-0.126-0.472
			c-0.29,0-0.579,0-0.868,0c-0.47,0-0.97,0.099-1.366,0.366C361.378,424.44,361.405,424.715,361.796,424.715L361.796,424.715z"/>
	</g>
</g>
<g>
	<g>
		<path d="M364.824,424.685c0.397,0,2.199-0.777,1.256-0.777C365.683,423.907,363.881,424.685,364.824,424.685L364.824,424.685z"/>
	</g>
</g>
<g>
	<g>
		<path d="M304.19,493.094c0.001,1.754,0.037,3.488,0.434,5.205c0.143,0.618,2.08,0.123,1.932-0.518
			c-0.396-1.717-0.433-3.451-0.434-5.205C306.122,492.036,304.19,492.385,304.19,493.094L304.19,493.094z"/>
	</g>
</g>
<g>
	<g>
		<path d="M321.604,493.671c-0.444,0.971-0.426,2.075-0.866,3.038c-0.398,0.872,1.533,0.653,1.805,0.061
			c0.444-0.972,0.426-2.076,0.866-3.038C323.808,492.859,321.876,493.078,321.604,493.671L321.604,493.671z"/>
	</g>
</g>
<g>
	<g>
		<path d="M236.086,486.587c0.424,1.247,1.011,2.371,1.735,3.47c0.344,0.521,2.132-0.214,1.932-0.518
			c-0.724-1.099-1.311-2.223-1.735-3.47C237.842,485.552,235.928,486.121,236.086,486.587L236.086,486.587z"/>
	</g>
</g>
<g>
	<g>
		<path d="M241.871,489.001c0.666,0,2.077-1.01,0.774-1.01C241.979,487.991,240.568,489.001,241.871,489.001L241.871,489.001z"/>
	</g>
</g>
<g>
	<g>
		<path d="M244.017,489.785c0.289-0.289,0.578-0.578,0.867-0.867c0.336-0.335-0.286-0.481-0.5-0.479
			c-0.468,0.006-0.948,0.172-1.281,0.504c-0.29,0.288-0.579,0.577-0.867,0.867c-0.335,0.336,0.285,0.481,0.5,0.479
			C243.202,490.283,243.685,490.118,244.017,489.785L244.017,489.785z"/>
	</g>
</g>
<g>
	<g>
		<path d="M422.18,451.45c0.029,1.58,0.718,2.885,1.8,4.009c0.43,0.445,2.255-0.257,1.803-0.727c-1.036-1.075-1.643-2.296-1.671-3.8
			C424.102,450.406,422.167,450.76,422.18,451.45L422.18,451.45z"/>
	</g>
</g>
<g>
	<g>
		<path d="M425.649,454.485c0,0.145,0,0.29,0,0.435c0,0.283,1.932,0.015,1.932-0.518c0-0.145,0-0.29,0-0.435
			C427.581,453.685,425.649,453.953,425.649,454.485L425.649,454.485z"/>
	</g>
</g>
<g>
	<g>
		<path d="M426.856,454.186c0.144,0,0.288,0,0.433,0c0.464,0,0.97-0.118,1.366-0.366c0.302-0.188,0.264-0.417-0.112-0.417
			c-0.145,0-0.288,0-0.433,0c-0.464,0-0.97,0.118-1.366,0.366C426.441,453.957,426.48,454.186,426.856,454.186L426.856,454.186z"/>
	</g>
</g>
<g>
	<g>
		<path d="M395.78,477.57c0.793,0.438,0.881,1.32,1.239,2.075c0.269,0.565,2.142-0.077,1.932-0.518
			c-0.387-0.814-0.504-1.786-1.362-2.261c-0.378-0.209-0.877-0.098-1.26,0.052C396.235,476.955,395.422,477.372,395.78,477.57
			L395.78,477.57z"/>
	</g>
</g>
<g>
	<g>
		<path d="M399.313,476.343c0.861-0.003,1.555-0.312,2.154-0.911c0.321-0.32-0.277-0.387-0.472-0.375
			c-0.432,0.024-0.973,0.161-1.288,0.477c-0.073,0.073-0.153,0.167-0.235,0.231c0.54-0.42,1.231-0.276,0.657-0.273
			c-0.414,0.001-0.993,0.169-1.288,0.477C398.524,476.298,399.117,476.344,399.313,476.343L399.313,476.343z"/>
	</g>
</g>
<g>
	<g>
		<path d="M401.867,479.025c1.688-0.619,2.982-2.015,3.975-3.466c0.274-0.402-0.234-0.694-0.565-0.723
			c-0.486-0.041-0.988,0.164-1.265,0.568c-0.743,1.087-1.704,2.146-2.967,2.608c-0.319,0.117-0.765,0.561-0.478,0.914
			C400.876,479.309,401.484,479.166,401.867,479.025L401.867,479.025z"/>
	</g>
</g>
<g>
	<g>
		<path d="M43.562,416.021c1.301,2.169,2.602,4.338,3.904,6.506c0.381,0.636,2.248-0.022,1.782-0.799
			c-1.301-2.169-2.602-4.338-3.904-6.506C44.963,414.586,43.096,415.244,43.562,416.021L43.562,416.021z"/>
	</g>
</g>
<g>
	<g>
		<path d="M48.258,419.349c0.044,0.47,0.39,0.832,0.434,1.302c0.033,0.351,1.979-0.01,1.932-0.518
			c-0.044-0.47-0.39-0.832-0.434-1.302C50.157,418.48,48.211,418.841,48.258,419.349L48.258,419.349z"/>
	</g>
</g>
<g>
	<g>
		<path d="M49.632,421.217c0.867,0.703,2.608,0.322,2.73-0.934c0.082-0.842-1.87-0.49-1.938,0.217
			c-0.055,0.566-0.21-0.225,0.723-0.099c0.133,0.033,0.265,0.065,0.397,0.098c-0.042-0.021-0.083-0.042-0.125-0.063
			c-0.361-0.293-0.883-0.228-1.287-0.051C49.926,420.475,49.27,420.923,49.632,421.217L49.632,421.217z"/>
	</g>
</g>
<g>
	<g>
		<path d="M171.449,443.491c0.026,1.226,0.4,2.402,0.438,3.62c0.021,0.69,1.957,0.285,1.932-0.518
			c-0.034-1.118-0.406-2.195-0.43-3.317C173.37,442.4,171.435,442.797,171.449,443.491L171.449,443.491z"/>
	</g>
</g>
<g>
	<g>
		<path d="M174.261,448.067c0-0.579,0-1.158,0-1.736c0-0.96-1.95-0.625-1.95,0.174c0,0.579,0,1.158,0,1.736
			C172.311,449.201,174.261,448.866,174.261,448.067L174.261,448.067z"/>
	</g>
</g>
<g>
	<g>
		<path d="M175.434,449.1c0.994-0.512,1.769-1.221,2.554-2.005c0.312-0.313,0.179-0.727-0.228-0.85
			c-0.466-0.142-1.027,0.026-1.366,0.365c-0.551,0.551-1.084,1.108-1.784,1.468c-0.299,0.154-0.781,0.542-0.477,0.92
			C174.419,449.354,175.077,449.283,175.434,449.1L175.434,449.1z"/>
	</g>
</g>
<g>
	<g>
		<path d="M141.296,481.477c-0.034-2.265-0.437-4.473-0.879-6.688c-0.175-0.875-2.11-0.378-1.932,0.518
			c0.418,2.094,0.824,4.185,0.856,6.326C139.356,482.631,141.309,482.319,141.296,481.477L141.296,481.477z"/>
	</g>
</g>
<g>
	<g>
		<path d="M142.558,480.415c0.783,0,2.034-1.188,0.727-1.188C142.501,479.228,141.25,480.415,142.558,480.415L142.558,480.415z"/>
	</g>
</g>
<g>
	<g>
		<path d="M142.987,481.698c1.847-0.063,3.71-0.855,5.053-2.131c0.3-0.284,0.212-0.633-0.195-0.728
			c-0.45-0.104-1.03,0.047-1.366,0.366c-0.705,0.669-1.756,1.309-2.755,1.342c-0.447,0.016-1.009,0.13-1.272,0.539
			C142.21,481.463,142.655,481.709,142.987,481.698L142.987,481.698z"/>
	</g>
</g>
<g>
	<g>
		<path d="M458.242,441.991c1.659,1.681,3.057,3.537,4.279,5.556c0.321,0.53,2.135-0.183,1.932-0.518
			c-1.258-2.077-2.69-3.995-4.398-5.726C459.669,440.913,457.873,441.617,458.242,441.991L458.242,441.991z"/>
	</g>
</g>
<g>
	<g>
		<path d="M465.768,448.514c0-1.013,0-2.025,0-3.037c0-1.009-1.957-0.709-1.957,0.15c0,1.013,0,2.025,0,3.037
			C463.811,449.673,465.768,449.373,465.768,448.514L465.768,448.514z"/>
	</g>
</g>
<g>
	<g>
		<path d="M466.117,448.152c0.723,0,1.446,0,2.17,0c0.414,0,0.995-0.169,1.287-0.479c0.314-0.334-0.272-0.386-0.475-0.386
			c-0.723,0-1.446,0-2.17,0c-0.414,0-0.995,0.169-1.287,0.479C465.328,448.101,465.915,448.152,466.117,448.152L466.117,448.152z"/>
	</g>
</g>
</svg>
